<svg width="26" height="29" viewBox="0 0 26 29" fill="none" xmlns="http://www.w3.org/2000/svg">
<path d="M1.85714 26.2813C1.85714 27.0023 2.15064 27.6938 2.67306 28.2037C3.19548 28.7136 3.90404 29 4.64286 29H21.3571C22.096 29 22.8045 28.7136 23.3269 28.2037C23.8494 27.6938 24.1429 27.0023 24.1429 26.2813V7.25001H1.85714V26.2813ZM17.6429 11.7813C17.6429 11.5409 17.7407 11.3104 17.9148 11.1404C18.089 10.9705 18.3252 10.875 18.5714 10.875C18.8177 10.875 19.0539 10.9705 19.228 11.1404C19.4022 11.3104 19.5 11.5409 19.5 11.7813V24.4688C19.5 24.7091 19.4022 24.9396 19.228 25.1096C19.0539 25.2795 18.8177 25.375 18.5714 25.375C18.3252 25.375 18.089 25.2795 17.9148 25.1096C17.7407 24.9396 17.6429 24.7091 17.6429 24.4688V11.7813ZM12.0714 11.7813C12.0714 11.5409 12.1693 11.3104 12.3434 11.1404C12.5175 10.9705 12.7537 10.875 13 10.875C13.2463 10.875 13.4825 10.9705 13.6566 11.1404C13.8307 11.3104 13.9286 11.5409 13.9286 11.7813V24.4688C13.9286 24.7091 13.8307 24.9396 13.6566 25.1096C13.4825 25.2795 13.2463 25.375 13 25.375C12.7537 25.375 12.5175 25.2795 12.3434 25.1096C12.1693 24.9396 12.0714 24.7091 12.0714 24.4688V11.7813ZM6.5 11.7813C6.5 11.5409 6.59783 11.3104 6.77197 11.1404C6.94611 10.9705 7.1823 10.875 7.42857 10.875C7.67484 10.875 7.91103 10.9705 8.08517 11.1404C8.25931 11.3104 8.35714 11.5409 8.35714 11.7813V24.4688C8.35714 24.7091 8.25931 24.9396 8.08517 25.1096C7.91103 25.2795 7.67484 25.375 7.42857 25.375C7.1823 25.375 6.94611 25.2795 6.77197 25.1096C6.59783 24.9396 6.5 24.7091 6.5 24.4688V11.7813ZM25.0714 1.81251H18.1071L17.5616 0.75333C17.446 0.526889 17.268 0.336411 17.0476 0.203326C16.8272 0.070241 16.573 -0.000171506 16.3138 9.93064e-06H9.68036C9.42174 -0.000960353 9.16807 0.0691896 8.94841 0.202423C8.72876 0.335656 8.552 0.526583 8.43839 0.75333L7.89286 1.81251H0.928571C0.682299 1.81251 0.446113 1.90799 0.271972 2.07794C0.0978314 2.2479 0 2.47841 0 2.71876L0 4.53126C0 4.77161 0.0978314 5.00212 0.271972 5.17207C0.446113 5.34203 0.682299 5.43751 0.928571 5.43751H25.0714C25.3177 5.43751 25.5539 5.34203 25.728 5.17207C25.9022 5.00212 26 4.77161 26 4.53126V2.71876C26 2.47841 25.9022 2.2479 25.728 2.07794C25.5539 1.90799 25.3177 1.81251 25.0714 1.81251Z" fill="#061E5C"/>
</svg>
